<mxfile host="app.diagrams.net" modified="2023-06-24T09:10:19.700Z" agent="Mozilla/5.0 (Windows NT 10.0; Win64; x64) AppleWebKit/537.36 (KHTML, like Gecko) Chrome/114.0.0.0 Safari/537.36" etag="6vQit_tIRVafRif8QWMu" version="21.5.0" type="google">
  <diagram name="페이지-1" id="S2p5GkVbzrSfrT8rLHQ4">
    <mxGraphModel grid="1" page="1" gridSize="10" guides="1" tooltips="1" connect="1" arrows="1" fold="1" pageScale="1" pageWidth="827" pageHeight="1169" math="0" shadow="0">
      <root>
        <mxCell id="0" />
        <mxCell id="1" parent="0" />
        <mxCell id="RsTfmZ7LAS4rQrNJthzC-10" value="" style="whiteSpace=wrap;html=1;aspect=fixed;strokeWidth=4;" vertex="1" parent="1">
          <mxGeometry x="90" y="85" width="590" height="590" as="geometry" />
        </mxCell>
        <mxCell id="RsTfmZ7LAS4rQrNJthzC-1" value="Actor" style="shape=umlActor;verticalLabelPosition=bottom;verticalAlign=top;html=1;outlineConnect=0;" vertex="1" parent="1">
          <mxGeometry x="30" y="360" width="30" height="60" as="geometry" />
        </mxCell>
        <mxCell id="RsTfmZ7LAS4rQrNJthzC-5" value="&lt;font style=&quot;font-size: 24px;&quot;&gt;게시글 목록 조회&lt;/font&gt;" style="rounded=1;whiteSpace=wrap;html=1;fillColor=#fff2cc;strokeColor=#d6b656;strokeWidth=3;arcSize=50;" vertex="1" parent="1">
          <mxGeometry x="314" y="190" width="200" height="60" as="geometry" />
        </mxCell>
        <mxCell id="RsTfmZ7LAS4rQrNJthzC-6" value="&lt;font style=&quot;font-size: 24px;&quot;&gt;게시글 작성&lt;/font&gt;" style="rounded=1;whiteSpace=wrap;html=1;fillColor=#fff2cc;strokeColor=#d6b656;strokeWidth=3;arcSize=50;" vertex="1" parent="1">
          <mxGeometry x="314" y="270" width="200" height="60" as="geometry" />
        </mxCell>
        <mxCell id="RsTfmZ7LAS4rQrNJthzC-7" value="&lt;font style=&quot;font-size: 24px;&quot;&gt;특정 게시글 조회&lt;/font&gt;" style="rounded=1;whiteSpace=wrap;html=1;fillColor=#fff2cc;strokeColor=#d6b656;strokeWidth=3;arcSize=50;" vertex="1" parent="1">
          <mxGeometry x="314" y="350" width="200" height="60" as="geometry" />
        </mxCell>
        <mxCell id="RsTfmZ7LAS4rQrNJthzC-8" value="&lt;span style=&quot;font-size: 24px;&quot;&gt;게시글 수정&lt;/span&gt;" style="rounded=1;whiteSpace=wrap;html=1;fillColor=#fff2cc;strokeColor=#d6b656;strokeWidth=3;arcSize=50;" vertex="1" parent="1">
          <mxGeometry x="314" y="430" width="200" height="60" as="geometry" />
        </mxCell>
        <mxCell id="RsTfmZ7LAS4rQrNJthzC-9" value="&lt;span style=&quot;font-size: 24px;&quot;&gt;게시글 삭제&lt;br&gt;&lt;/span&gt;" style="rounded=1;whiteSpace=wrap;html=1;fillColor=#fff2cc;strokeColor=#d6b656;strokeWidth=3;arcSize=50;" vertex="1" parent="1">
          <mxGeometry x="314" y="510" width="200" height="60" as="geometry" />
        </mxCell>
        <mxCell id="RsTfmZ7LAS4rQrNJthzC-12" value="" style="endArrow=none;html=1;rounded=0;exitX=1;exitY=0.3333333333333333;exitDx=0;exitDy=0;exitPerimeter=0;entryX=0;entryY=0.5;entryDx=0;entryDy=0;" edge="1" parent="1" source="RsTfmZ7LAS4rQrNJthzC-1" target="RsTfmZ7LAS4rQrNJthzC-10">
          <mxGeometry width="50" height="50" relative="1" as="geometry">
            <mxPoint x="390" y="420" as="sourcePoint" />
            <mxPoint x="120" y="370" as="targetPoint" />
          </mxGeometry>
        </mxCell>
        <mxCell id="RsTfmZ7LAS4rQrNJthzC-15" value="&lt;font style=&quot;font-size: 36px;&quot;&gt;DB&lt;/font&gt;" style="whiteSpace=wrap;html=1;aspect=fixed;" vertex="1" parent="1">
          <mxGeometry x="730" y="340" width="80" height="80" as="geometry" />
        </mxCell>
        <mxCell id="RsTfmZ7LAS4rQrNJthzC-16" value="&lt;font style=&quot;font-size: 24px;&quot;&gt;게시판&lt;br&gt;&lt;/font&gt;" style="rounded=1;whiteSpace=wrap;html=1;fillColor=#fff2cc;strokeColor=#d6b656;strokeWidth=3;" vertex="1" parent="1">
          <mxGeometry x="130" y="350" width="120" height="60" as="geometry" />
        </mxCell>
        <mxCell id="RsTfmZ7LAS4rQrNJthzC-17" value="" style="endArrow=none;html=1;rounded=0;entryX=0;entryY=0.5;entryDx=0;entryDy=0;exitX=1;exitY=0.5;exitDx=0;exitDy=0;" edge="1" parent="1" source="RsTfmZ7LAS4rQrNJthzC-10" target="RsTfmZ7LAS4rQrNJthzC-15">
          <mxGeometry width="50" height="50" relative="1" as="geometry">
            <mxPoint x="390" y="420" as="sourcePoint" />
            <mxPoint x="440" y="370" as="targetPoint" />
          </mxGeometry>
        </mxCell>
        <mxCell id="RsTfmZ7LAS4rQrNJthzC-18" value="" style="endArrow=none;html=1;rounded=0;exitX=1;exitY=0.5;exitDx=0;exitDy=0;entryX=0;entryY=0.5;entryDx=0;entryDy=0;" edge="1" parent="1" source="RsTfmZ7LAS4rQrNJthzC-16" target="RsTfmZ7LAS4rQrNJthzC-5">
          <mxGeometry width="50" height="50" relative="1" as="geometry">
            <mxPoint x="390" y="410" as="sourcePoint" />
            <mxPoint x="440" y="360" as="targetPoint" />
          </mxGeometry>
        </mxCell>
        <mxCell id="RsTfmZ7LAS4rQrNJthzC-19" value="" style="endArrow=none;html=1;rounded=0;entryX=0;entryY=0.5;entryDx=0;entryDy=0;" edge="1" parent="1" target="RsTfmZ7LAS4rQrNJthzC-6">
          <mxGeometry width="50" height="50" relative="1" as="geometry">
            <mxPoint x="250" y="380" as="sourcePoint" />
            <mxPoint x="324" y="230" as="targetPoint" />
          </mxGeometry>
        </mxCell>
        <mxCell id="RsTfmZ7LAS4rQrNJthzC-20" value="" style="endArrow=none;html=1;rounded=0;entryX=0;entryY=0.5;entryDx=0;entryDy=0;exitX=1;exitY=0.5;exitDx=0;exitDy=0;" edge="1" parent="1" source="RsTfmZ7LAS4rQrNJthzC-16" target="RsTfmZ7LAS4rQrNJthzC-7">
          <mxGeometry width="50" height="50" relative="1" as="geometry">
            <mxPoint x="260" y="390" as="sourcePoint" />
            <mxPoint x="324" y="310" as="targetPoint" />
          </mxGeometry>
        </mxCell>
        <mxCell id="RsTfmZ7LAS4rQrNJthzC-22" value="" style="endArrow=none;html=1;rounded=0;entryX=0;entryY=0.5;entryDx=0;entryDy=0;exitX=1;exitY=0.5;exitDx=0;exitDy=0;" edge="1" parent="1" source="RsTfmZ7LAS4rQrNJthzC-16" target="RsTfmZ7LAS4rQrNJthzC-8">
          <mxGeometry width="50" height="50" relative="1" as="geometry">
            <mxPoint x="260" y="390" as="sourcePoint" />
            <mxPoint x="324" y="390" as="targetPoint" />
          </mxGeometry>
        </mxCell>
        <mxCell id="RsTfmZ7LAS4rQrNJthzC-23" value="" style="endArrow=none;html=1;rounded=0;entryX=0;entryY=0.5;entryDx=0;entryDy=0;" edge="1" parent="1" target="RsTfmZ7LAS4rQrNJthzC-9">
          <mxGeometry width="50" height="50" relative="1" as="geometry">
            <mxPoint x="250" y="380" as="sourcePoint" />
            <mxPoint x="324" y="470" as="targetPoint" />
          </mxGeometry>
        </mxCell>
        <mxCell id="RsTfmZ7LAS4rQrNJthzC-24" value="" style="endArrow=none;dashed=1;html=1;dashPattern=1 3;strokeWidth=2;rounded=0;exitX=0;exitY=0.5;exitDx=0;exitDy=0;entryX=0;entryY=0.5;entryDx=0;entryDy=0;" edge="1" parent="1" source="RsTfmZ7LAS4rQrNJthzC-10" target="RsTfmZ7LAS4rQrNJthzC-16">
          <mxGeometry width="50" height="50" relative="1" as="geometry">
            <mxPoint x="390" y="410" as="sourcePoint" />
            <mxPoint x="440" y="360" as="targetPoint" />
          </mxGeometry>
        </mxCell>
        <mxCell id="RsTfmZ7LAS4rQrNJthzC-25" value="" style="strokeWidth=2;html=1;shape=mxgraph.flowchart.annotation_2;align=left;labelPosition=right;pointerEvents=1;rotation=-180;" vertex="1" parent="1">
          <mxGeometry x="520" y="170" width="210" height="420" as="geometry" />
        </mxCell>
        <mxCell id="RsTfmZ7LAS4rQrNJthzC-28" value="&lt;font style=&quot;font-size: 25px;&quot;&gt;게시판 서비스&lt;/font&gt;" style="shape=step;perimeter=stepPerimeter;whiteSpace=wrap;html=1;fixedSize=1;strokeWidth=2;size=20;" vertex="1" parent="1">
          <mxGeometry x="90" y="85" width="200" height="80" as="geometry" />
        </mxCell>
      </root>
    </mxGraphModel>
  </diagram>
</mxfile>
